# xmcd
#
# Track frame offsets: 
#        150
#        14064
#        28075
#        42609
#        56990
#        70017
#        83670
#        95695
#        109045
#        121401
#        153140
#
# Disc length: 4136 seconds
#
# Revision: 0
# Processed by: cddbd v1.5.2PL0 Copyright (c) Steve Scherf et al.
# Submitted via: ExactAudioCopyFreeDBPlugin 1.0
#
DISCID=9210260b
DTITLE=Luka - O Próximo Trem
DYEAR=2008
DGENRE=Blues
TTITLE0=Samba-Enredo
TTITLE1=Pelo Espelho
TTITLE2=Tardes de Sol
TTITLE3=O Próximo Trem
TTITLE4=Sempre Tão Perfeito
TTITLE5=Se eu fosse Forte
TTITLE6=Tempo Demais
TTITLE7=Blues do Passado e do Presente
TTITLE8=Cinderela Doida
TTITLE9=No Quiero Armas
TTITLE10=Bônus Track
EXTD=
EXTT0=
EXTT1=
EXTT2=
EXTT3=
EXTT4=
EXTT5=
EXTT6=
EXTT7=
EXTT8=
EXTT9=
EXTT10=
PLAYORDER=
